<svg width="405" height="57" fill="none" xmlns="http://www.w3.org/2000/svg"><path d="M89.24 15.31h4.5c.28 0 .54.17.64.44l9.48 24.19 9.48-24.19c.1-.27.36-.44.64-.44h4.5c.49 0 .82.49.64.95l-12.1 30.57c-.1.26-.36.44-.64.44h-5.05a.68.68 0 0 1-.64-.44l-12.1-30.57c-.18-.46.16-.95.65-.95zM141.21 42.94c-.67.93-1.51 1.78-2.53 2.53-.89.62-1.98 1.19-3.26 1.7-1.29.51-2.8.77-4.53.77-1.69 0-3.2-.26-4.53-.77s-2.49-1.19-3.46-2.03a8.428 8.428 0 0 1-2.23-2.96 8.574 8.574 0 0 1-.77-3.56c0-2.66.8-4.82 2.4-6.46 1.6-1.64 3.91-2.71 6.92-3.2l11.98-2c0-2-.68-3.66-2.03-4.99-1.35-1.33-3.12-2-5.29-2-1.33 0-2.53.23-3.6.7-1.07.47-1.98.97-2.73 1.5-.68.48-1.29 1-1.84 1.58-.27.29-.72.31-1 .03l-2.69-2.69a.694.694 0 0 1-.04-.94c.79-.92 1.7-1.75 2.72-2.51 1.02-.75 2.31-1.44 3.86-2.06 1.55-.62 3.33-.93 5.33-.93 1.91 0 3.66.31 5.26.93 1.6.62 2.96 1.49 4.09 2.6s2.02 2.42 2.66 3.93c.64 1.51.97 3.13.97 4.86v19.61c0 .38-.31.69-.69.69h-4.28c-.38 0-.69-.31-.69-.69v-3.64zm0-11.32l-10.32 1.67c-1.69.27-3 .88-3.93 1.83-.93.95-1.4 2.01-1.4 3.16 0 1.29.51 2.39 1.53 3.3 1.02.91 2.51 1.36 4.46 1.36 1.33 0 2.59-.25 3.76-.77 1.17-.51 2.2-1.21 3.06-2.1.87-.89 1.55-1.94 2.06-3.16.51-1.22.77-2.54.77-3.96v-1.33h.01zM152.89 15.31h4.27c.38 0 .69.31.69.69v3.97c.71-.98 1.55-1.86 2.53-2.66.84-.67 1.9-1.28 3.16-1.83 1.26-.55 2.74-.83 4.43-.83 1.86 0 3.58.32 5.16.97 1.57.64 2.93 1.56 4.06 2.76 1.13 1.2 2.02 2.66 2.66 4.39.64 1.73.97 3.69.97 5.86v17.95c0 .38-.31.69-.69.69h-4.28c-.38 0-.69-.31-.69-.69V28.63c0-2.66-.74-4.77-2.23-6.32-1.49-1.55-3.41-2.33-5.76-2.33-1.33 0-2.56.24-3.7.73a9.084 9.084 0 0 0-2.96 2.03c-.84.87-1.5 1.91-1.96 3.13-.47 1.22-.7 2.59-.7 4.09v16.62c0 .38-.31.69-.69.69h-4.27c-.38 0-.69-.31-.69-.69V16c0-.38.31-.69.69-.69zM186.89 15.31h4.27c.38 0 .69.31.69.69v30.57c0 .38-.31.69-.69.69h-4.27c-.38 0-.69-.31-.69-.69V16c0-.38.31-.69.69-.69zM185 7.29c0-1.12.39-2.08 1.17-2.86.78-.78 1.74-1.17 2.86-1.17 1.12 0 2.08.39 2.86 1.17.78.78 1.17 1.74 1.17 2.86 0 1.13-.39 2.08-1.17 2.86-.78.78-1.74 1.17-2.86 1.17-1.13 0-2.08-.39-2.86-1.17-.78-.78-1.17-1.73-1.17-2.86zM226 41.18c.25.25.28.65.06.92-.81 1-1.78 1.91-2.89 2.71s-2.5 1.52-4.16 2.16c-1.66.64-3.63.97-5.89.97-2.35 0-4.54-.43-6.56-1.3-2.02-.87-3.77-2.04-5.26-3.53-1.49-1.49-2.66-3.24-3.53-5.26-.87-2.02-1.3-4.2-1.3-6.56 0-2.31.42-4.48 1.26-6.52.84-2.04 2-3.81 3.46-5.29a16.6 16.6 0 0 1 5.09-3.53c1.93-.87 3.98-1.3 6.16-1.3 2.26 0 4.35.39 6.26 1.16 1.91.78 3.56 1.86 4.96 3.26 1.4 1.4 2.49 3.05 3.26 4.96.78 1.91 1.17 3.99 1.17 6.26 0 .44-.02.84-.07 1.2-.03.22-.11.77-.18 1.21-.05.34-.34.59-.68.59h-24.71c.18 1.24.57 2.43 1.17 3.56s1.36 2.12 2.3 2.96c.93.84 2.01 1.52 3.23 2.03 1.22.51 2.54.77 3.96.77 1.55 0 2.94-.23 4.16-.7 1.22-.47 2.23-1.01 3.03-1.63.74-.53 1.4-1.12 2-1.79a.68.68 0 0 1 .99-.01l2.71 2.7zm-3.56-12.89c-.27-1.15-.68-2.24-1.23-3.26a9.5 9.5 0 0 0-2.13-2.66 9.805 9.805 0 0 0-2.96-1.76c-1.11-.42-2.33-.63-3.66-.63s-2.55.21-3.66.63c-1.11.42-2.1 1.01-2.96 1.76-.87.76-1.58 1.64-2.13 2.66-.55 1.02-.97 2.11-1.23 3.26h19.96zM234.11 15.31h4.27c.38 0 .69.31.69.69v3.64c.67-.89 1.51-1.71 2.53-2.46.89-.62 1.96-1.2 3.23-1.73s2.79-.8 4.56-.8h.64c.38 0 .69.31.69.69v4.46c0 .43-.4.76-.82.68-.24-.05-.47-.09-.58-.11-.27-.04-.58-.07-.93-.07-1.33 0-2.56.24-3.7.73a9.24 9.24 0 0 0-2.96 2.03c-.84.87-1.5 1.91-1.96 3.13-.47 1.22-.7 2.59-.7 4.09v16.28c0 .38-.31.69-.69.69h-4.27c-.38 0-.69-.31-.69-.69V16c0-.38.31-.69.69-.69zM274.81 25.3a7.4 7.4 0 0 1-1.46 1.38c-.49.34-1.08.66-1.79.95-.7.29-1.53.43-2.48.43-1.04 0-2-.18-2.89-.55a7.084 7.084 0 0 1-3.85-3.78c-.38-.86-.56-1.79-.56-2.77 0-.99.19-1.91.56-2.77.38-.86.89-1.62 1.54-2.26.65-.64 1.42-1.15 2.31-1.52.89-.37 1.85-.55 2.89-.55.95 0 1.77.14 2.47.41.7.28 1.28.59 1.76.93.54.39 1.01.84 1.4 1.32l-1.38 1.38c-.28-.38-.63-.72-1.05-1.03-.35-.26-.8-.5-1.33-.72-.53-.22-1.15-.33-1.87-.33-.71 0-1.38.13-2 .4-.63.26-1.17.63-1.64 1.1-.47.47-.83 1.01-1.09 1.64-.26.63-.4 1.29-.4 2s.13 1.38.4 2c.26.63.63 1.17 1.09 1.64.47.47 1.01.83 1.64 1.1.62.26 1.29.39 2 .39s1.34-.11 1.88-.33c.54-.22 1-.47 1.36-.75.44-.32.8-.68 1.11-1.09l1.38 1.38zM276.55 14.05h1.97v5.73c.2-.29.44-.55.73-.79.25-.2.56-.38.93-.54.37-.16.8-.25 1.3-.25.54 0 1.04.1 1.5.29.46.19.86.46 1.2.82.33.36.6.79.78 1.3.18.51.28 1.09.28 1.74v5.53h-1.97v-5.53c0-.7-.2-1.25-.6-1.66-.4-.41-.92-.61-1.57-.61-.37 0-.71.07-1.03.2-.32.13-.59.31-.81.54-.22.23-.4.51-.53.84-.13.33-.2.69-.2 1.09v5.13h-1.97V14.05h-.01zM287.53 15.33c0-.37.12-.68.36-.92s.52-.36.82-.36c.3 0 .58.12.82.36s.36.55.36.92-.12.68-.36.92-.52.36-.82.36c-.3 0-.58-.12-.82-.36s-.36-.55-.36-.92zm.2 3.06h1.97v9.48h-1.97v-9.48zM292.31 14.05h1.97v13.82h-1.97V14.05zM304.02 26.49c-.2.29-.45.55-.77.79-.26.2-.6.38-1.02.54-.41.16-.9.25-1.47.25a4.152 4.152 0 0 1-3.11-1.39c-.4-.44-.73-.96-.97-1.57-.24-.61-.36-1.26-.36-1.97s.12-1.37.36-1.97c.24-.61.57-1.13.97-1.57.4-.44.87-.78 1.41-1.03.54-.24 1.1-.37 1.7-.37.57 0 1.06.08 1.47.25.41.16.75.35 1.02.54.32.24.57.5.77.79v-5.73h1.97v13.82h-1.97v-1.38zm-2.87-.3a2.805 2.805 0 0 0 2.64-1.83c.15-.38.23-.79.23-1.23 0-.45-.08-.86-.23-1.23-.15-.38-.36-.7-.61-.97a2.805 2.805 0 0 0-2.03-.86c-.39 0-.77.08-1.12.23-.35.15-.65.36-.91.63s-.46.59-.61.97c-.15.38-.23.79-.23 1.23 0 .45.08.86.23 1.23.15.38.35.7.61.97s.56.48.91.63c.36.15.73.23 1.12.23zM308.55 18.39h1.97v1.28c.21-.26.45-.51.73-.73.24-.18.53-.36.89-.51.36-.16.77-.24 1.24-.24h.49v2.07c-.09-.01-.18-.03-.26-.04-.08-.01-.16-.03-.25-.04-.09-.01-.18-.02-.29-.02-.34 0-.67.07-.98.21-.31.14-.58.34-.82.59a2.9 2.9 0 0 0-.56.91c-.14.35-.21.73-.21 1.15v4.84h-1.97v-9.47h.02zM323.66 26.29c-.26.34-.59.64-.99.89-.34.22-.76.43-1.26.61s-1.1.28-1.8.28-1.35-.13-1.94-.38c-.6-.26-1.12-.61-1.56-1.05-.44-.44-.79-.96-1.05-1.56-.26-.6-.38-1.25-.38-1.94 0-.68.13-1.33.38-1.93.26-.61.6-1.13 1.04-1.57.44-.44.95-.79 1.53-1.05.58-.26 1.21-.39 1.88-.39.67 0 1.29.12 1.86.35.57.23 1.06.55 1.47.97.41.41.74.9.97 1.47a4.887 4.887 0 0 1 .32 2.25c-.01.12-.03.22-.04.32-.01.11-.03.2-.04.28h-7.31c.05.32.16.62.33.91.16.29.38.54.63.76.26.22.56.39.9.51.34.13.71.19 1.1.19.42 0 .8-.07 1.15-.2.34-.13.63-.28.87-.43.28-.18.53-.4.75-.65l1.19 1.36zm-1.58-4.15c-.15-.64-.43-1.17-.87-1.57-.43-.4-1-.6-1.7-.6-.75 0-1.35.2-1.8.6-.45.4-.77.93-.97 1.57h5.34zM326.09 18.39h1.97v1.38c.2-.29.44-.55.73-.79.25-.2.56-.38.93-.54.37-.16.8-.25 1.3-.25.54 0 1.04.1 1.5.29.46.19.86.46 1.19.82.34.36.6.79.78 1.3.18.51.28 1.09.28 1.74v5.53h-1.98v-5.53c0-.7-.2-1.25-.6-1.66-.4-.41-.93-.61-1.57-.61-.37 0-.71.07-1.03.2-.32.13-.58.31-.81.54-.23.23-.4.51-.53.84-.13.33-.2.69-.2 1.09v5.13h-1.97v-9.48h.01zM338.57 14.06l.32.18c.39.22.52.72.28 1.1l-1.65 2.63c-.22.35-.67.47-1.02.27a.781.781 0 0 1-.34-1.01l1.31-2.82c.2-.41.7-.57 1.1-.35zM339.99 25.01c.2.25.42.47.67.65.22.16.48.3.78.43.3.13.63.2 1.02.2.55 0 .97-.12 1.25-.36s.42-.52.42-.82c0-.26-.12-.47-.38-.62-.25-.15-.56-.29-.93-.4-.37-.12-.77-.24-1.21-.38-.44-.13-.85-.31-1.21-.52-.37-.22-.68-.5-.93-.85s-.38-.81-.38-1.37c0-.37.08-.72.24-1.06.16-.34.38-.63.68-.88.3-.25.66-.45 1.09-.6.43-.15.91-.23 1.45-.23.57 0 1.06.07 1.48.21.42.14.77.29 1.05.44.33.18.61.39.83.63l-1.28 1.28c-.16-.14-.34-.28-.55-.39-.18-.1-.4-.2-.66-.28-.26-.08-.54-.12-.86-.12-.5 0-.87.1-1.12.31-.24.2-.36.43-.36.68 0 .26.12.47.38.62.25.15.56.29.93.4.37.12.77.24 1.21.38.44.13.85.31 1.21.52.37.22.68.5.93.86s.38.81.38 1.36c0 .39-.08.77-.25 1.13-.16.36-.4.67-.72.95-.32.28-.7.49-1.15.65-.46.16-.97.24-1.53.24-.63 0-1.18-.09-1.64-.28a5.79 5.79 0 0 1-1.17-.61c-.37-.25-.68-.55-.95-.89l1.28-1.28zM262.67 33.15h1.98l5.23 6.71 5.23-6.71h1.98v13.82h-2.17V36.81l-5.04 6.42-5.03-6.42v10.17h-2.17V33.15h-.01zM288.63 45.4c-.26.34-.59.64-.99.89-.34.22-.76.43-1.26.61s-1.1.28-1.8.28-1.35-.13-1.94-.38c-.6-.26-1.12-.61-1.56-1.05-.44-.44-.79-.96-1.05-1.56-.26-.6-.38-1.25-.38-1.94 0-.68.13-1.33.38-1.93.26-.61.6-1.13 1.04-1.57.44-.44.95-.79 1.53-1.05.58-.26 1.21-.39 1.88-.39.67 0 1.29.12 1.86.35.57.23 1.06.55 1.47.97.41.41.74.9.97 1.47a4.887 4.887 0 0 1 .32 2.25c-.01.12-.03.22-.04.32-.01.11-.03.2-.04.28h-7.31c.05.32.16.62.33.91.16.29.38.54.63.76.26.22.56.39.9.51.34.13.71.19 1.1.19.42 0 .8-.07 1.15-.2.34-.13.63-.28.87-.43.28-.18.53-.4.75-.65l1.19 1.36zm-1.58-4.15c-.15-.64-.43-1.17-.87-1.57-.43-.4-1-.6-1.7-.6-.75 0-1.35.2-1.8.6-.45.4-.77.93-.97 1.57h5.34zM291.05 37.5h1.97v1.38c.2-.29.44-.55.73-.79.25-.2.56-.38.93-.54.37-.16.8-.25 1.3-.25.54 0 1.04.1 1.5.29.46.19.86.46 1.19.82.34.36.6.79.78 1.3.18.51.28 1.09.28 1.74v5.53h-1.98v-5.53c0-.7-.2-1.25-.6-1.66-.4-.41-.93-.61-1.57-.61-.37 0-.71.07-1.03.2-.32.13-.58.31-.81.54-.22.23-.4.51-.53.84-.13.33-.2.69-.2 1.09v5.13h-1.97V37.5h.01zM302.92 39.37h-1.78V37.5h1.09c.3 0 .53-.08.67-.25.14-.17.22-.44.22-.84v-2.07h1.78v3.16h2.17v1.88h-2.17v4.44c0 .99.46 1.48 1.38 1.48.15 0 .28-.01.41-.04.13-.03.25-.06.35-.1.12-.05.22-.1.32-.16v1.88c-.13.05-.27.1-.41.16a3.696 3.696 0 0 1-1.06.14c-.95 0-1.68-.27-2.19-.8s-.77-1.32-.77-2.36v-4.65h-.01zM314.98 45.59c-.2.29-.45.55-.75.79-.26.2-.59.38-.97.54-.38.16-.83.25-1.34.25-.47 0-.9-.08-1.29-.23a3.21 3.21 0 0 1-1-.6c-.28-.25-.49-.54-.64-.88-.15-.34-.23-.69-.23-1.06 0-.79.25-1.44.75-1.97.5-.52 1.17-.85 2.01-1l3.46-.59c0-.5-.18-.92-.54-1.26-.36-.34-.84-.51-1.43-.51-.38 0-.72.07-1.02.21-.3.14-.56.29-.78.44-.25.18-.47.39-.67.63l-1.28-1.28c.26-.33.58-.62.95-.89.32-.22.7-.43 1.17-.61.46-.18 1.01-.28 1.64-.28.59 0 1.13.09 1.62.28a3.475 3.475 0 0 1 2.04 1.94c.19.45.29.93.29 1.44v6.02H315v-1.38h-.02zm0-3.16l-2.77.49c-.5.09-.87.25-1.12.48-.24.23-.36.5-.36.8 0 .34.14.64.41.9.28.26.67.38 1.17.38a2.622 2.622 0 0 0 2.46-1.67c.14-.34.21-.7.21-1.1v-.28zM319.49 33.15h1.97v13.82h-1.97V33.15zM327.1 33.15h2.27l3.36 10.37 3.26-10.37h2.17l3.26 10.37 3.36-10.37h2.27l-4.54 13.82h-2.17l-3.26-10.37-3.26 10.37h-2.17l-4.55-13.82zM356.21 45.4c-.26.34-.59.64-.99.89-.34.22-.76.43-1.26.61s-1.1.28-1.8.28-1.35-.13-1.94-.38c-.6-.26-1.12-.61-1.56-1.05-.44-.44-.79-.96-1.05-1.56-.26-.6-.38-1.25-.38-1.94 0-.68.13-1.33.38-1.93.26-.61.6-1.13 1.04-1.57.44-.44.95-.79 1.53-1.05.58-.26 1.21-.39 1.88-.39.67 0 1.29.12 1.86.35.57.23 1.06.55 1.47.97.41.41.74.9.97 1.47a4.887 4.887 0 0 1 .32 2.25c-.01.12-.03.22-.04.32-.01.11-.03.2-.04.28h-7.31c.05.32.16.62.33.91.16.29.38.54.63.76.26.22.56.39.9.51.34.13.71.19 1.11.19.42 0 .8-.07 1.15-.2.34-.13.63-.28.87-.43.28-.18.53-.4.75-.65l1.18 1.36zm-1.58-4.15c-.15-.64-.43-1.17-.87-1.57-.43-.4-1-.6-1.7-.6-.75 0-1.35.2-1.8.6-.45.4-.77.93-.97 1.57h5.34zM358.71 33.15h1.97v13.82h-1.97V33.15zM363.29 33.15h1.97v13.82h-1.97V33.15zM367.81 37.5h1.98v1.38c.2-.29.44-.55.73-.79.25-.2.56-.38.93-.54.37-.16.8-.25 1.3-.25.54 0 1.04.1 1.5.29.46.19.86.46 1.19.82.34.36.6.79.78 1.3.18.51.28 1.09.28 1.74v5.53h-1.97v-5.53c0-.7-.2-1.25-.6-1.66-.4-.41-.92-.61-1.57-.61-.37 0-.71.07-1.03.2-.32.13-.59.31-.81.54-.22.23-.4.51-.53.84-.13.33-.2.69-.2 1.09v5.13h-1.98V37.5zM387.38 45.4c-.26.34-.59.64-.99.89-.34.22-.76.43-1.26.61s-1.1.28-1.8.28-1.35-.13-1.94-.38c-.6-.26-1.12-.61-1.56-1.05-.44-.44-.79-.96-1.05-1.56-.26-.6-.39-1.25-.39-1.94 0-.68.13-1.33.39-1.93a4.89 4.89 0 0 1 2.57-2.62c.58-.26 1.21-.39 1.89-.39.67 0 1.29.12 1.86.35.57.23 1.06.55 1.47.97.41.41.74.9.97 1.47a4.89 4.89 0 0 1 .33 2.25c-.01.12-.03.22-.04.32-.01.11-.03.2-.04.28h-7.31c.05.32.16.62.33.91.17.29.38.54.63.76.26.22.56.39.9.51.34.13.71.19 1.11.19.42 0 .8-.07 1.14-.2.34-.13.63-.28.87-.43.28-.18.53-.4.75-.65l1.17 1.36zm-1.58-4.15c-.15-.64-.44-1.17-.87-1.57-.44-.4-1-.6-1.7-.6-.75 0-1.35.2-1.8.6-.45.4-.77.93-.97 1.57h5.34zM390.21 44.11c.2.25.42.47.67.65.22.16.49.3.78.43.3.13.64.2 1.02.2.55 0 .97-.12 1.25-.36s.42-.52.42-.82c0-.26-.12-.47-.37-.62-.25-.15-.56-.29-.93-.4-.37-.12-.77-.24-1.21-.38-.44-.13-.85-.31-1.21-.52-.37-.22-.68-.5-.93-.85s-.38-.81-.38-1.37c0-.37.08-.72.24-1.06.16-.34.39-.63.68-.88.3-.25.66-.45 1.09-.6.43-.15.91-.23 1.45-.23.56 0 1.06.07 1.48.21.42.14.77.29 1.05.44.33.18.61.39.83.63l-1.28 1.28c-.16-.14-.34-.28-.55-.4-.18-.1-.4-.2-.66-.28-.26-.08-.54-.12-.86-.12-.5 0-.87.1-1.12.31-.24.2-.36.43-.36.68 0 .26.13.47.38.62.25.15.56.29.93.4.37.12.77.24 1.21.38.44.13.84.31 1.21.52.37.22.68.5.93.86s.38.81.38 1.36c0 .39-.08.77-.25 1.13-.17.36-.4.67-.72.95-.32.28-.7.49-1.15.65-.45.16-.96.24-1.53.24-.63 0-1.18-.09-1.64-.28-.46-.18-.85-.39-1.16-.61-.37-.25-.69-.55-.95-.89l1.26-1.27zM398.71 44.11c.2.25.42.47.67.65.22.16.48.3.78.43.3.13.63.2 1.02.2.55 0 .97-.12 1.25-.36s.42-.52.42-.82c0-.26-.12-.47-.38-.62-.25-.15-.56-.29-.93-.4-.37-.12-.77-.24-1.21-.38-.44-.13-.85-.31-1.21-.52-.37-.22-.68-.5-.93-.85s-.38-.81-.38-1.37c0-.37.08-.72.24-1.06.16-.34.38-.63.68-.88.3-.25.66-.45 1.09-.6.43-.15.91-.23 1.45-.23.57 0 1.06.07 1.48.21.42.14.77.29 1.05.44.33.18.61.39.83.63l-1.28 1.28c-.16-.14-.34-.28-.55-.4-.18-.1-.4-.2-.66-.28-.26-.08-.54-.12-.86-.12-.5 0-.87.1-1.12.31-.24.2-.36.43-.36.68 0 .26.12.47.38.62.25.15.56.29.93.4.37.12.77.24 1.21.38.44.13.85.31 1.21.52.37.22.68.5.93.86s.38.81.38 1.36c0 .39-.08.77-.25 1.13-.16.36-.4.67-.72.95-.32.28-.7.49-1.15.65-.46.16-.97.24-1.53.24-.63 0-1.18-.09-1.64-.28a5.79 5.79 0 0 1-1.17-.61c-.37-.25-.68-.55-.95-.89l1.28-1.27z" fill="#2F223A"/><path d="M75.17 7.73L70.55 3.1c-3.81-3.81-10.01-3.81-13.82 0L40.01 19.82c-.32.32-.83.32-1.15 0L22.15 3.1C20.31 1.25 17.85.24 15.24.23a9.78 9.78 0 0 0-6.91 2.86L3.7 7.72a9.766 9.766 0 0 0 0 13.82L38.86 56.7c.32.32.83.32 1.15 0l35.16-35.17c3.81-3.8 3.81-9.99 0-13.8zM60.18 6.56a4.875 4.875 0 0 1 3.91-1.41c1.19.11 2.29.7 3.14 1.54.25.25.25.65 0 .9L47.51 27.32c-.32.32-.83.32-1.15 0l-2.89-2.89a.809.809 0 0 1 0-1.15L60.18 6.56zM40.16 27.02l3.61 3.61c.4.4.4 1.04 0 1.44l-3.61 3.6c-.4.4-1.04.4-1.44 0l-3.61-3.61c-.4-.4-.4-1.04 0-1.44l3.6-3.61c.4-.39 1.05-.39 1.45.01zM15.24 5.12c1.31 0 2.53.51 3.46 1.43l16.71 16.72c.32.32.32.83 0 1.15l-2.88 2.89c-.32.32-.83.32-1.15 0L11.65 7.59a.634.634 0 0 1 0-.9l.14-.14c.91-.91 2.15-1.43 3.45-1.43zm56.48 12.97L40.01 49.81c-.32.32-.83.32-1.15 0L7.15 18.1c-1.13-1.13-1.64-2.72-1.35-4.35.18-1.03.74-1.95 1.48-2.69l.01-.01c.25-.25.65-.25.9 0l30.67 30.67c.32.32.83.32 1.15 0l30.53-30.53c.32-.32.85-.32 1.16.01.2.21.38.41.44.48a4.871 4.871 0 0 1-.42 6.41z" fill="#00B58A"/></svg>
