<?xml version="1.0" encoding="utf-8"?>
<!-- Generator: Adobe Illustrator 22.1.0, SVG Export Plug-In . SVG Version: 6.00 Build 0)  -->
<svg version="1.1" id="Layer_1" xmlns="http://www.w3.org/2000/svg" xmlns:xlink="http://www.w3.org/1999/xlink" x="0px" y="0px"
	 viewBox="83 0 32 53" style="enable-background:new 83 0 32 53;" xml:space="preserve">
<style type="text/css">
	.st0{fill:#E31B23;}
</style>
<title>Logo/Gn_Logo_verticle</title>
<desc>Created with Sketch.</desc>
<g id="Logo_x2F_Gn_x5F_Logo_x5F_verticle">
	<g id="Group-8">
		<path id="Fill-7" class="st0" d="M94,54.7c0,0-0.1,0-0.1,0c-0.1,0-0.2-0.1-0.2-0.2V39.4c0-0.1,0-0.1,0.1-0.2l9.1-6.6
			c0.4-0.3,0.5-0.7,0.5-1c0-0.3-0.1-0.6-0.4-0.7L82.7,16.2c-0.1,0-0.1-0.1-0.1-0.2V0.2c0-0.1,0.1-0.2,0.2-0.2c0,0,0.1,0,0.1,0
			l32.6,23.5c0.1,0,0.1,0.1,0.1,0.2v15.2c0,0.1,0,0.1-0.1,0.2L94,54.7z"/>
	</g>
</g>
</svg>
